<mxfile host="app.diagrams.net" modified="2024-06-13T07:57:47.693Z" agent="Mozilla/5.0 (Macintosh; Intel Mac OS X 10.15; rv:125.0) Gecko/20100101 Firefox/125.0" etag="Kb27Jqvpw4eoVk2rh5dZ" version="23.1.7" type="device">
  <diagram name="Page-1" id="UEZZuyesuc4-tGxujjOX">
    <mxGraphModel dx="1026" dy="686" grid="1" gridSize="10" guides="1" tooltips="1" connect="1" arrows="1" fold="1" page="1" pageScale="1" pageWidth="827" pageHeight="1169" math="1" shadow="0">
      <root>
        <mxCell id="0" />
        <mxCell id="1" parent="0" />
        <mxCell id="WittVWpWR6wsNWBmQSTq-1" value="" style="rounded=0;whiteSpace=wrap;html=1;fillColor=#91C1FF;strokeColor=#FFFFFF;strokeWidth=2;" parent="1" vertex="1">
          <mxGeometry x="360" y="280" width="40" height="40" as="geometry" />
        </mxCell>
        <mxCell id="WittVWpWR6wsNWBmQSTq-3" value="" style="rounded=0;whiteSpace=wrap;html=1;fillColor=#91C1FF;strokeColor=#FFFFFF;strokeWidth=2;" parent="1" vertex="1">
          <mxGeometry x="400" y="280" width="40" height="40" as="geometry" />
        </mxCell>
        <mxCell id="WittVWpWR6wsNWBmQSTq-4" value="" style="rounded=0;whiteSpace=wrap;html=1;fillColor=#91C1FF;strokeColor=#FFFFFF;strokeWidth=2;" parent="1" vertex="1">
          <mxGeometry x="440" y="280" width="40" height="40" as="geometry" />
        </mxCell>
        <mxCell id="WittVWpWR6wsNWBmQSTq-5" value="" style="rounded=0;whiteSpace=wrap;html=1;fillColor=#91C1FF;strokeColor=#FFFFFF;strokeWidth=2;" parent="1" vertex="1">
          <mxGeometry x="480" y="280" width="40" height="40" as="geometry" />
        </mxCell>
        <mxCell id="WittVWpWR6wsNWBmQSTq-6" value="" style="rounded=0;whiteSpace=wrap;html=1;fillColor=#91C1FF;strokeColor=#FFFFFF;strokeWidth=2;" parent="1" vertex="1">
          <mxGeometry x="520" y="280" width="40" height="40" as="geometry" />
        </mxCell>
        <mxCell id="WittVWpWR6wsNWBmQSTq-7" value="" style="rounded=0;whiteSpace=wrap;html=1;fillColor=#91C1FF;strokeColor=#FFFFFF;strokeWidth=2;" parent="1" vertex="1">
          <mxGeometry x="560" y="280" width="40" height="40" as="geometry" />
        </mxCell>
        <mxCell id="WittVWpWR6wsNWBmQSTq-8" value="" style="rounded=0;whiteSpace=wrap;html=1;fillColor=#91C1FF;strokeColor=#FFFFFF;strokeWidth=2;" parent="1" vertex="1">
          <mxGeometry x="600" y="280" width="40" height="40" as="geometry" />
        </mxCell>
        <mxCell id="WittVWpWR6wsNWBmQSTq-9" value="" style="rounded=0;whiteSpace=wrap;html=1;fillColor=#91C1FF;strokeColor=#FFFFFF;strokeWidth=2;" parent="1" vertex="1">
          <mxGeometry x="640" y="280" width="40" height="40" as="geometry" />
        </mxCell>
        <mxCell id="WittVWpWR6wsNWBmQSTq-10" value="" style="rounded=0;whiteSpace=wrap;html=1;fillColor=#91C1FF;strokeColor=#FFFFFF;strokeWidth=2;" parent="1" vertex="1">
          <mxGeometry x="680" y="280" width="40" height="40" as="geometry" />
        </mxCell>
        <mxCell id="WittVWpWR6wsNWBmQSTq-11" value="" style="rounded=0;whiteSpace=wrap;html=1;fillColor=#91C1FF;strokeColor=#FFFFFF;strokeWidth=2;" parent="1" vertex="1">
          <mxGeometry x="360" y="320" width="40" height="40" as="geometry" />
        </mxCell>
        <mxCell id="WittVWpWR6wsNWBmQSTq-12" value="" style="rounded=0;whiteSpace=wrap;html=1;fillColor=#91C1FF;strokeColor=#FFFFFF;strokeWidth=2;" parent="1" vertex="1">
          <mxGeometry x="400" y="320" width="40" height="40" as="geometry" />
        </mxCell>
        <mxCell id="WittVWpWR6wsNWBmQSTq-13" value="" style="rounded=0;whiteSpace=wrap;html=1;fillColor=#91C1FF;strokeColor=#FFFFFF;strokeWidth=2;" parent="1" vertex="1">
          <mxGeometry x="440" y="320" width="40" height="40" as="geometry" />
        </mxCell>
        <mxCell id="WittVWpWR6wsNWBmQSTq-14" value="" style="rounded=0;whiteSpace=wrap;html=1;fillColor=#91C1FF;strokeColor=#FFFFFF;strokeWidth=2;" parent="1" vertex="1">
          <mxGeometry x="480" y="320" width="40" height="40" as="geometry" />
        </mxCell>
        <mxCell id="WittVWpWR6wsNWBmQSTq-15" value="" style="rounded=0;whiteSpace=wrap;html=1;fillColor=#2CA395;strokeColor=#FFFFFF;strokeWidth=2;" parent="1" vertex="1">
          <mxGeometry x="520" y="320" width="40" height="40" as="geometry" />
        </mxCell>
        <mxCell id="WittVWpWR6wsNWBmQSTq-16" value="" style="rounded=0;whiteSpace=wrap;html=1;fillColor=#91C1FF;strokeColor=#FFFFFF;strokeWidth=2;" parent="1" vertex="1">
          <mxGeometry x="560" y="320" width="40" height="40" as="geometry" />
        </mxCell>
        <mxCell id="WittVWpWR6wsNWBmQSTq-17" value="" style="rounded=0;whiteSpace=wrap;html=1;fillColor=#91C1FF;strokeColor=#FFFFFF;strokeWidth=2;" parent="1" vertex="1">
          <mxGeometry x="600" y="320" width="40" height="40" as="geometry" />
        </mxCell>
        <mxCell id="WittVWpWR6wsNWBmQSTq-18" value="" style="rounded=0;whiteSpace=wrap;html=1;fillColor=#91C1FF;strokeColor=#FFFFFF;strokeWidth=2;" parent="1" vertex="1">
          <mxGeometry x="640" y="320" width="40" height="40" as="geometry" />
        </mxCell>
        <mxCell id="WittVWpWR6wsNWBmQSTq-19" value="" style="rounded=0;whiteSpace=wrap;html=1;fillColor=#91C1FF;strokeColor=#FFFFFF;strokeWidth=2;" parent="1" vertex="1">
          <mxGeometry x="680" y="320" width="40" height="40" as="geometry" />
        </mxCell>
        <mxCell id="WittVWpWR6wsNWBmQSTq-20" value="" style="rounded=0;whiteSpace=wrap;html=1;fillColor=#91C1FF;strokeColor=#FFFFFF;strokeWidth=2;" parent="1" vertex="1">
          <mxGeometry x="360" y="360" width="40" height="40" as="geometry" />
        </mxCell>
        <mxCell id="WittVWpWR6wsNWBmQSTq-21" value="" style="rounded=0;whiteSpace=wrap;html=1;fillColor=#91C1FF;strokeColor=#FFFFFF;strokeWidth=2;" parent="1" vertex="1">
          <mxGeometry x="400" y="360" width="40" height="40" as="geometry" />
        </mxCell>
        <mxCell id="WittVWpWR6wsNWBmQSTq-22" value="" style="rounded=0;whiteSpace=wrap;html=1;fillColor=#91C1FF;strokeColor=#FFFFFF;strokeWidth=2;" parent="1" vertex="1">
          <mxGeometry x="440" y="360" width="40" height="40" as="geometry" />
        </mxCell>
        <mxCell id="WittVWpWR6wsNWBmQSTq-23" value="" style="rounded=0;whiteSpace=wrap;html=1;fillColor=#91C1FF;strokeColor=#FFFFFF;strokeWidth=2;" parent="1" vertex="1">
          <mxGeometry x="480" y="360" width="40" height="40" as="geometry" />
        </mxCell>
        <mxCell id="WittVWpWR6wsNWBmQSTq-24" value="" style="rounded=0;whiteSpace=wrap;html=1;fillColor=#2CA395;strokeColor=#FFFFFF;strokeWidth=2;" parent="1" vertex="1">
          <mxGeometry x="520" y="360" width="40" height="40" as="geometry" />
        </mxCell>
        <mxCell id="WittVWpWR6wsNWBmQSTq-25" value="" style="rounded=0;whiteSpace=wrap;html=1;fillColor=#91C1FF;strokeColor=#FFFFFF;strokeWidth=2;" parent="1" vertex="1">
          <mxGeometry x="560" y="360" width="40" height="40" as="geometry" />
        </mxCell>
        <mxCell id="WittVWpWR6wsNWBmQSTq-26" value="" style="rounded=0;whiteSpace=wrap;html=1;fillColor=#91C1FF;strokeColor=#FFFFFF;strokeWidth=2;" parent="1" vertex="1">
          <mxGeometry x="600" y="360" width="40" height="40" as="geometry" />
        </mxCell>
        <mxCell id="WittVWpWR6wsNWBmQSTq-27" value="" style="rounded=0;whiteSpace=wrap;html=1;fillColor=#91C1FF;strokeColor=#FFFFFF;strokeWidth=2;" parent="1" vertex="1">
          <mxGeometry x="640" y="360" width="40" height="40" as="geometry" />
        </mxCell>
        <mxCell id="WittVWpWR6wsNWBmQSTq-28" value="" style="rounded=0;whiteSpace=wrap;html=1;fillColor=#91C1FF;strokeColor=#FFFFFF;strokeWidth=2;" parent="1" vertex="1">
          <mxGeometry x="680" y="360" width="40" height="40" as="geometry" />
        </mxCell>
        <mxCell id="WittVWpWR6wsNWBmQSTq-29" value="" style="rounded=0;whiteSpace=wrap;html=1;fillColor=#91C1FF;strokeColor=#FFFFFF;strokeWidth=2;" parent="1" vertex="1">
          <mxGeometry x="360" y="400" width="40" height="40" as="geometry" />
        </mxCell>
        <mxCell id="WittVWpWR6wsNWBmQSTq-30" value="" style="rounded=0;whiteSpace=wrap;html=1;fillColor=#91C1FF;strokeColor=#FFFFFF;strokeWidth=2;" parent="1" vertex="1">
          <mxGeometry x="400" y="400" width="40" height="40" as="geometry" />
        </mxCell>
        <mxCell id="WittVWpWR6wsNWBmQSTq-31" value="" style="rounded=0;whiteSpace=wrap;html=1;fillColor=#91C1FF;strokeColor=#FFFFFF;strokeWidth=2;" parent="1" vertex="1">
          <mxGeometry x="440" y="400" width="40" height="40" as="geometry" />
        </mxCell>
        <mxCell id="WittVWpWR6wsNWBmQSTq-32" value="" style="rounded=0;whiteSpace=wrap;html=1;fillColor=#2CA395;strokeColor=#FFFFFF;strokeWidth=2;" parent="1" vertex="1">
          <mxGeometry x="480" y="400" width="40" height="40" as="geometry" />
        </mxCell>
        <mxCell id="WittVWpWR6wsNWBmQSTq-33" value="" style="rounded=0;whiteSpace=wrap;html=1;fillColor=#2CA395;strokeColor=#FFFFFF;strokeWidth=2;" parent="1" vertex="1">
          <mxGeometry x="520" y="400" width="40" height="40" as="geometry" />
        </mxCell>
        <mxCell id="WittVWpWR6wsNWBmQSTq-34" value="" style="rounded=0;whiteSpace=wrap;html=1;fillColor=#2CA395;strokeColor=#FFFFFF;strokeWidth=2;" parent="1" vertex="1">
          <mxGeometry x="560" y="400" width="40" height="40" as="geometry" />
        </mxCell>
        <mxCell id="WittVWpWR6wsNWBmQSTq-35" value="" style="rounded=0;whiteSpace=wrap;html=1;fillColor=#91C1FF;strokeColor=#FFFFFF;strokeWidth=2;" parent="1" vertex="1">
          <mxGeometry x="600" y="400" width="40" height="40" as="geometry" />
        </mxCell>
        <mxCell id="WittVWpWR6wsNWBmQSTq-36" value="" style="rounded=0;whiteSpace=wrap;html=1;fillColor=#91C1FF;strokeColor=#FFFFFF;strokeWidth=2;" parent="1" vertex="1">
          <mxGeometry x="640" y="400" width="40" height="40" as="geometry" />
        </mxCell>
        <mxCell id="WittVWpWR6wsNWBmQSTq-37" value="" style="rounded=0;whiteSpace=wrap;html=1;fillColor=#91C1FF;strokeColor=#FFFFFF;strokeWidth=2;" parent="1" vertex="1">
          <mxGeometry x="680" y="400" width="40" height="40" as="geometry" />
        </mxCell>
        <mxCell id="WittVWpWR6wsNWBmQSTq-38" value="" style="rounded=0;whiteSpace=wrap;html=1;fillColor=#91C1FF;strokeColor=#FFFFFF;strokeWidth=2;" parent="1" vertex="1">
          <mxGeometry x="360" y="440" width="40" height="40" as="geometry" />
        </mxCell>
        <mxCell id="WittVWpWR6wsNWBmQSTq-39" value="" style="rounded=0;whiteSpace=wrap;html=1;fillColor=#2CA395;strokeColor=#FFFFFF;strokeWidth=2;" parent="1" vertex="1">
          <mxGeometry x="400" y="440" width="40" height="40" as="geometry" />
        </mxCell>
        <mxCell id="WittVWpWR6wsNWBmQSTq-40" value="" style="rounded=0;whiteSpace=wrap;html=1;fillColor=#2CA395;strokeColor=#FFFFFF;strokeWidth=2;" parent="1" vertex="1">
          <mxGeometry x="440" y="440" width="40" height="40" as="geometry" />
        </mxCell>
        <mxCell id="WittVWpWR6wsNWBmQSTq-41" value="" style="rounded=0;whiteSpace=wrap;html=1;fillColor=#2CA395;strokeColor=#FFFFFF;strokeWidth=2;" parent="1" vertex="1">
          <mxGeometry x="480" y="440" width="40" height="40" as="geometry" />
        </mxCell>
        <mxCell id="WittVWpWR6wsNWBmQSTq-42" value="" style="rounded=0;whiteSpace=wrap;html=1;fillColor=#E76F51;strokeColor=#FFFFFF;strokeWidth=2;" parent="1" vertex="1">
          <mxGeometry x="520" y="440" width="40" height="40" as="geometry" />
        </mxCell>
        <mxCell id="WittVWpWR6wsNWBmQSTq-43" value="" style="rounded=0;whiteSpace=wrap;html=1;fillColor=#CCCCCC;strokeColor=#FFFFFF;strokeWidth=2;" parent="1" vertex="1">
          <mxGeometry x="560" y="440" width="40" height="40" as="geometry" />
        </mxCell>
        <mxCell id="WittVWpWR6wsNWBmQSTq-44" value="" style="rounded=0;whiteSpace=wrap;html=1;fillColor=#CCCCCC;strokeColor=#FFFFFF;strokeWidth=2;" parent="1" vertex="1">
          <mxGeometry x="600" y="440" width="40" height="40" as="geometry" />
        </mxCell>
        <mxCell id="WittVWpWR6wsNWBmQSTq-45" value="" style="rounded=0;whiteSpace=wrap;html=1;fillColor=#CCCCCC;strokeColor=#FFFFFF;strokeWidth=2;" parent="1" vertex="1">
          <mxGeometry x="640" y="440" width="40" height="40" as="geometry" />
        </mxCell>
        <mxCell id="WittVWpWR6wsNWBmQSTq-46" value="" style="rounded=0;whiteSpace=wrap;html=1;fillColor=#CCCCCC;strokeColor=#FFFFFF;strokeWidth=2;" parent="1" vertex="1">
          <mxGeometry x="680" y="440" width="40" height="40" as="geometry" />
        </mxCell>
        <mxCell id="WittVWpWR6wsNWBmQSTq-47" value="" style="rounded=0;whiteSpace=wrap;html=1;fillColor=#CCCCCC;strokeColor=#FFFFFF;strokeWidth=2;" parent="1" vertex="1">
          <mxGeometry x="360" y="480" width="40" height="40" as="geometry" />
        </mxCell>
        <mxCell id="WittVWpWR6wsNWBmQSTq-48" value="" style="rounded=0;whiteSpace=wrap;html=1;fillColor=#CCCCCC;strokeColor=#FFFFFF;strokeWidth=2;" parent="1" vertex="1">
          <mxGeometry x="400" y="480" width="40" height="40" as="geometry" />
        </mxCell>
        <mxCell id="WittVWpWR6wsNWBmQSTq-49" value="" style="rounded=0;whiteSpace=wrap;html=1;fillColor=#CCCCCC;strokeColor=#FFFFFF;strokeWidth=2;" parent="1" vertex="1">
          <mxGeometry x="440" y="480" width="40" height="40" as="geometry" />
        </mxCell>
        <mxCell id="WittVWpWR6wsNWBmQSTq-50" value="" style="rounded=0;whiteSpace=wrap;html=1;fillColor=#CCCCCC;strokeColor=#FFFFFF;strokeWidth=2;" parent="1" vertex="1">
          <mxGeometry x="480" y="480" width="40" height="40" as="geometry" />
        </mxCell>
        <mxCell id="WittVWpWR6wsNWBmQSTq-51" value="" style="rounded=0;whiteSpace=wrap;html=1;fillColor=#CCCCCC;strokeColor=#FFFFFF;strokeWidth=2;" parent="1" vertex="1">
          <mxGeometry x="520" y="480" width="40" height="40" as="geometry" />
        </mxCell>
        <mxCell id="WittVWpWR6wsNWBmQSTq-52" value="" style="rounded=0;whiteSpace=wrap;html=1;fillColor=#CCCCCC;strokeColor=#FFFFFF;strokeWidth=2;" parent="1" vertex="1">
          <mxGeometry x="560" y="480" width="40" height="40" as="geometry" />
        </mxCell>
        <mxCell id="WittVWpWR6wsNWBmQSTq-53" value="" style="rounded=0;whiteSpace=wrap;html=1;fillColor=#CCCCCC;strokeColor=#FFFFFF;strokeWidth=2;" parent="1" vertex="1">
          <mxGeometry x="600" y="480" width="40" height="40" as="geometry" />
        </mxCell>
        <mxCell id="WittVWpWR6wsNWBmQSTq-54" value="" style="rounded=0;whiteSpace=wrap;html=1;fillColor=#CCCCCC;strokeColor=#FFFFFF;strokeWidth=2;" parent="1" vertex="1">
          <mxGeometry x="640" y="480" width="40" height="40" as="geometry" />
        </mxCell>
        <mxCell id="WittVWpWR6wsNWBmQSTq-55" value="" style="rounded=0;whiteSpace=wrap;html=1;fillColor=#CCCCCC;strokeColor=#FFFFFF;strokeWidth=2;" parent="1" vertex="1">
          <mxGeometry x="680" y="480" width="40" height="40" as="geometry" />
        </mxCell>
        <mxCell id="WittVWpWR6wsNWBmQSTq-83" value="" style="rounded=0;whiteSpace=wrap;html=1;fillColor=#91C1FF;strokeColor=#FFFFFF;strokeWidth=2;" parent="1" vertex="1">
          <mxGeometry x="760" y="280" width="40" height="40" as="geometry" />
        </mxCell>
        <mxCell id="WittVWpWR6wsNWBmQSTq-84" value="" style="rounded=0;whiteSpace=wrap;html=1;fillColor=#91C1FF;strokeColor=#FFFFFF;strokeWidth=2;" parent="1" vertex="1">
          <mxGeometry x="800" y="280" width="40" height="40" as="geometry" />
        </mxCell>
        <mxCell id="WittVWpWR6wsNWBmQSTq-85" value="" style="rounded=0;whiteSpace=wrap;html=1;fillColor=#91C1FF;strokeColor=#FFFFFF;strokeWidth=2;" parent="1" vertex="1">
          <mxGeometry x="840" y="280" width="40" height="40" as="geometry" />
        </mxCell>
        <mxCell id="WittVWpWR6wsNWBmQSTq-86" value="" style="rounded=0;whiteSpace=wrap;html=1;fillColor=#91C1FF;strokeColor=#FFFFFF;strokeWidth=2;" parent="1" vertex="1">
          <mxGeometry x="880" y="280" width="40" height="40" as="geometry" />
        </mxCell>
        <mxCell id="WittVWpWR6wsNWBmQSTq-87" value="" style="rounded=0;whiteSpace=wrap;html=1;fillColor=#91C1FF;strokeColor=#FFFFFF;strokeWidth=2;" parent="1" vertex="1">
          <mxGeometry x="920" y="280" width="40" height="40" as="geometry" />
        </mxCell>
        <mxCell id="WittVWpWR6wsNWBmQSTq-88" value="" style="rounded=0;whiteSpace=wrap;html=1;fillColor=#91C1FF;strokeColor=#FFFFFF;strokeWidth=2;" parent="1" vertex="1">
          <mxGeometry x="960" y="280" width="40" height="40" as="geometry" />
        </mxCell>
        <mxCell id="WittVWpWR6wsNWBmQSTq-89" value="" style="rounded=0;whiteSpace=wrap;html=1;fillColor=#91C1FF;strokeColor=#FFFFFF;strokeWidth=2;" parent="1" vertex="1">
          <mxGeometry x="1000" y="280" width="40" height="40" as="geometry" />
        </mxCell>
        <mxCell id="WittVWpWR6wsNWBmQSTq-90" value="" style="rounded=0;whiteSpace=wrap;html=1;fillColor=#91C1FF;strokeColor=#FFFFFF;strokeWidth=2;" parent="1" vertex="1">
          <mxGeometry x="1040" y="280" width="40" height="40" as="geometry" />
        </mxCell>
        <mxCell id="WittVWpWR6wsNWBmQSTq-91" value="" style="rounded=0;whiteSpace=wrap;html=1;fillColor=#91C1FF;strokeColor=#FFFFFF;strokeWidth=2;" parent="1" vertex="1">
          <mxGeometry x="1080" y="280" width="40" height="40" as="geometry" />
        </mxCell>
        <mxCell id="WittVWpWR6wsNWBmQSTq-92" value="" style="rounded=0;whiteSpace=wrap;html=1;fillColor=#91C1FF;strokeColor=#FFFFFF;strokeWidth=2;" parent="1" vertex="1">
          <mxGeometry x="760" y="320" width="40" height="40" as="geometry" />
        </mxCell>
        <mxCell id="WittVWpWR6wsNWBmQSTq-93" value="" style="rounded=0;whiteSpace=wrap;html=1;fillColor=#91C1FF;strokeColor=#FFFFFF;strokeWidth=2;" parent="1" vertex="1">
          <mxGeometry x="800" y="320" width="40" height="40" as="geometry" />
        </mxCell>
        <mxCell id="WittVWpWR6wsNWBmQSTq-94" value="" style="rounded=0;whiteSpace=wrap;html=1;fillColor=#91C1FF;strokeColor=#FFFFFF;strokeWidth=2;" parent="1" vertex="1">
          <mxGeometry x="840" y="320" width="40" height="40" as="geometry" />
        </mxCell>
        <mxCell id="WittVWpWR6wsNWBmQSTq-95" value="" style="rounded=0;whiteSpace=wrap;html=1;fillColor=#91C1FF;strokeColor=#FFFFFF;strokeWidth=2;" parent="1" vertex="1">
          <mxGeometry x="880" y="320" width="40" height="40" as="geometry" />
        </mxCell>
        <mxCell id="WittVWpWR6wsNWBmQSTq-96" value="" style="rounded=0;whiteSpace=wrap;html=1;fillColor=#2CA395;strokeColor=#FFFFFF;strokeWidth=2;" parent="1" vertex="1">
          <mxGeometry x="920" y="320" width="40" height="40" as="geometry" />
        </mxCell>
        <mxCell id="WittVWpWR6wsNWBmQSTq-97" value="" style="rounded=0;whiteSpace=wrap;html=1;fillColor=#2CA395;strokeColor=#FFFFFF;strokeWidth=2;" parent="1" vertex="1">
          <mxGeometry x="960" y="320" width="40" height="40" as="geometry" />
        </mxCell>
        <mxCell id="WittVWpWR6wsNWBmQSTq-98" value="" style="rounded=0;whiteSpace=wrap;html=1;fillColor=#91C1FF;strokeColor=#FFFFFF;strokeWidth=2;" parent="1" vertex="1">
          <mxGeometry x="1000" y="320" width="40" height="40" as="geometry" />
        </mxCell>
        <mxCell id="WittVWpWR6wsNWBmQSTq-99" value="" style="rounded=0;whiteSpace=wrap;html=1;fillColor=#91C1FF;strokeColor=#FFFFFF;strokeWidth=2;" parent="1" vertex="1">
          <mxGeometry x="1040" y="320" width="40" height="40" as="geometry" />
        </mxCell>
        <mxCell id="WittVWpWR6wsNWBmQSTq-100" value="" style="rounded=0;whiteSpace=wrap;html=1;fillColor=#91C1FF;strokeColor=#FFFFFF;strokeWidth=2;" parent="1" vertex="1">
          <mxGeometry x="1080" y="320" width="40" height="40" as="geometry" />
        </mxCell>
        <mxCell id="WittVWpWR6wsNWBmQSTq-101" value="" style="rounded=0;whiteSpace=wrap;html=1;fillColor=#91C1FF;strokeColor=#FFFFFF;strokeWidth=2;" parent="1" vertex="1">
          <mxGeometry x="760" y="360" width="40" height="40" as="geometry" />
        </mxCell>
        <mxCell id="WittVWpWR6wsNWBmQSTq-102" value="" style="rounded=0;whiteSpace=wrap;html=1;fillColor=#91C1FF;strokeColor=#FFFFFF;strokeWidth=2;" parent="1" vertex="1">
          <mxGeometry x="800" y="360" width="40" height="40" as="geometry" />
        </mxCell>
        <mxCell id="WittVWpWR6wsNWBmQSTq-103" value="" style="rounded=0;whiteSpace=wrap;html=1;fillColor=#2CA395;strokeColor=#FFFFFF;strokeWidth=2;" parent="1" vertex="1">
          <mxGeometry x="840" y="360" width="40" height="40" as="geometry" />
        </mxCell>
        <mxCell id="WittVWpWR6wsNWBmQSTq-104" value="" style="rounded=0;whiteSpace=wrap;html=1;fillColor=#2CA395;strokeColor=#FFFFFF;strokeWidth=2;" parent="1" vertex="1">
          <mxGeometry x="880" y="360" width="40" height="40" as="geometry" />
        </mxCell>
        <mxCell id="WittVWpWR6wsNWBmQSTq-105" value="" style="rounded=0;whiteSpace=wrap;html=1;fillColor=#2CA395;strokeColor=#FFFFFF;strokeWidth=2;" parent="1" vertex="1">
          <mxGeometry x="920" y="360" width="40" height="40" as="geometry" />
        </mxCell>
        <mxCell id="WittVWpWR6wsNWBmQSTq-106" value="" style="rounded=0;whiteSpace=wrap;html=1;fillColor=#2CA395;strokeColor=#FFFFFF;strokeWidth=2;" parent="1" vertex="1">
          <mxGeometry x="960" y="360" width="40" height="40" as="geometry" />
        </mxCell>
        <mxCell id="WittVWpWR6wsNWBmQSTq-107" value="" style="rounded=0;whiteSpace=wrap;html=1;fillColor=#2CA395;strokeColor=#FFFFFF;strokeWidth=2;" parent="1" vertex="1">
          <mxGeometry x="1000" y="360" width="40" height="40" as="geometry" />
        </mxCell>
        <mxCell id="WittVWpWR6wsNWBmQSTq-108" value="" style="rounded=0;whiteSpace=wrap;html=1;fillColor=#91C1FF;strokeColor=#FFFFFF;strokeWidth=2;" parent="1" vertex="1">
          <mxGeometry x="1040" y="360" width="40" height="40" as="geometry" />
        </mxCell>
        <mxCell id="WittVWpWR6wsNWBmQSTq-109" value="" style="rounded=0;whiteSpace=wrap;html=1;fillColor=#91C1FF;strokeColor=#FFFFFF;strokeWidth=2;" parent="1" vertex="1">
          <mxGeometry x="1080" y="360" width="40" height="40" as="geometry" />
        </mxCell>
        <mxCell id="WittVWpWR6wsNWBmQSTq-110" value="" style="rounded=0;whiteSpace=wrap;html=1;fillColor=#91C1FF;strokeColor=#FFFFFF;strokeWidth=2;" parent="1" vertex="1">
          <mxGeometry x="760" y="400" width="40" height="40" as="geometry" />
        </mxCell>
        <mxCell id="WittVWpWR6wsNWBmQSTq-111" value="" style="rounded=0;whiteSpace=wrap;html=1;fillColor=#2CA395;strokeColor=#FFFFFF;strokeWidth=2;" parent="1" vertex="1">
          <mxGeometry x="800" y="400" width="40" height="40" as="geometry" />
        </mxCell>
        <mxCell id="WittVWpWR6wsNWBmQSTq-112" value="" style="rounded=0;whiteSpace=wrap;html=1;fillColor=#2CA395;strokeColor=#FFFFFF;strokeWidth=2;" parent="1" vertex="1">
          <mxGeometry x="840" y="400" width="40" height="40" as="geometry" />
        </mxCell>
        <mxCell id="WittVWpWR6wsNWBmQSTq-113" value="" style="rounded=0;whiteSpace=wrap;html=1;fillColor=#2CA395;strokeColor=#FFFFFF;strokeWidth=2;" parent="1" vertex="1">
          <mxGeometry x="880" y="400" width="40" height="40" as="geometry" />
        </mxCell>
        <mxCell id="WittVWpWR6wsNWBmQSTq-114" value="" style="rounded=0;whiteSpace=wrap;html=1;fillColor=#2CA395;strokeColor=#FFFFFF;strokeWidth=2;" parent="1" vertex="1">
          <mxGeometry x="920" y="400" width="40" height="40" as="geometry" />
        </mxCell>
        <mxCell id="WittVWpWR6wsNWBmQSTq-115" value="" style="rounded=0;whiteSpace=wrap;html=1;fillColor=#2CA395;strokeColor=#FFFFFF;strokeWidth=2;" parent="1" vertex="1">
          <mxGeometry x="960" y="400" width="40" height="40" as="geometry" />
        </mxCell>
        <mxCell id="WittVWpWR6wsNWBmQSTq-116" value="" style="rounded=0;whiteSpace=wrap;html=1;fillColor=#2CA395;strokeColor=#FFFFFF;strokeWidth=2;" parent="1" vertex="1">
          <mxGeometry x="1000" y="400" width="40" height="40" as="geometry" />
        </mxCell>
        <mxCell id="WittVWpWR6wsNWBmQSTq-117" value="" style="rounded=0;whiteSpace=wrap;html=1;fillColor=#91C1FF;strokeColor=#FFFFFF;strokeWidth=2;" parent="1" vertex="1">
          <mxGeometry x="1040" y="400" width="40" height="40" as="geometry" />
        </mxCell>
        <mxCell id="WittVWpWR6wsNWBmQSTq-118" value="" style="rounded=0;whiteSpace=wrap;html=1;fillColor=#91C1FF;strokeColor=#FFFFFF;strokeWidth=2;" parent="1" vertex="1">
          <mxGeometry x="1080" y="400" width="40" height="40" as="geometry" />
        </mxCell>
        <mxCell id="WittVWpWR6wsNWBmQSTq-119" value="" style="rounded=0;whiteSpace=wrap;html=1;fillColor=#91C1FF;strokeColor=#FFFFFF;strokeWidth=2;" parent="1" vertex="1">
          <mxGeometry x="760" y="440" width="40" height="40" as="geometry" />
        </mxCell>
        <mxCell id="WittVWpWR6wsNWBmQSTq-120" value="" style="rounded=0;whiteSpace=wrap;html=1;fillColor=#2CA395;strokeColor=#FFFFFF;strokeWidth=2;" parent="1" vertex="1">
          <mxGeometry x="800" y="440" width="40" height="40" as="geometry" />
        </mxCell>
        <mxCell id="WittVWpWR6wsNWBmQSTq-121" value="" style="rounded=0;whiteSpace=wrap;html=1;fillColor=#2CA395;strokeColor=#FFFFFF;strokeWidth=2;" parent="1" vertex="1">
          <mxGeometry x="840" y="440" width="40" height="40" as="geometry" />
        </mxCell>
        <mxCell id="WittVWpWR6wsNWBmQSTq-122" value="" style="rounded=0;whiteSpace=wrap;html=1;fillColor=#2CA395;strokeColor=#FFFFFF;strokeWidth=2;" parent="1" vertex="1">
          <mxGeometry x="880" y="440" width="40" height="40" as="geometry" />
        </mxCell>
        <mxCell id="WittVWpWR6wsNWBmQSTq-123" value="" style="rounded=0;whiteSpace=wrap;html=1;fillColor=#E76F51;strokeColor=#FFFFFF;strokeWidth=2;" parent="1" vertex="1">
          <mxGeometry x="920" y="440" width="40" height="40" as="geometry" />
        </mxCell>
        <mxCell id="WittVWpWR6wsNWBmQSTq-124" value="" style="rounded=0;whiteSpace=wrap;html=1;fillColor=#CCCCCC;strokeColor=#FFFFFF;strokeWidth=2;" parent="1" vertex="1">
          <mxGeometry x="960" y="440" width="40" height="40" as="geometry" />
        </mxCell>
        <mxCell id="WittVWpWR6wsNWBmQSTq-125" value="" style="rounded=0;whiteSpace=wrap;html=1;fillColor=#CCCCCC;strokeColor=#FFFFFF;strokeWidth=2;" parent="1" vertex="1">
          <mxGeometry x="1000" y="440" width="40" height="40" as="geometry" />
        </mxCell>
        <mxCell id="WittVWpWR6wsNWBmQSTq-126" value="" style="rounded=0;whiteSpace=wrap;html=1;fillColor=#CCCCCC;strokeColor=#FFFFFF;strokeWidth=2;" parent="1" vertex="1">
          <mxGeometry x="1040" y="440" width="40" height="40" as="geometry" />
        </mxCell>
        <mxCell id="WittVWpWR6wsNWBmQSTq-127" value="" style="rounded=0;whiteSpace=wrap;html=1;fillColor=#CCCCCC;strokeColor=#FFFFFF;strokeWidth=2;" parent="1" vertex="1">
          <mxGeometry x="1080" y="440" width="40" height="40" as="geometry" />
        </mxCell>
        <mxCell id="WittVWpWR6wsNWBmQSTq-128" value="" style="rounded=0;whiteSpace=wrap;html=1;fillColor=#CCCCCC;strokeColor=#FFFFFF;strokeWidth=2;" parent="1" vertex="1">
          <mxGeometry x="760" y="480" width="40" height="40" as="geometry" />
        </mxCell>
        <mxCell id="WittVWpWR6wsNWBmQSTq-129" value="" style="rounded=0;whiteSpace=wrap;html=1;fillColor=#CCCCCC;strokeColor=#FFFFFF;strokeWidth=2;" parent="1" vertex="1">
          <mxGeometry x="800" y="480" width="40" height="40" as="geometry" />
        </mxCell>
        <mxCell id="WittVWpWR6wsNWBmQSTq-130" value="" style="rounded=0;whiteSpace=wrap;html=1;fillColor=#CCCCCC;strokeColor=#FFFFFF;strokeWidth=2;" parent="1" vertex="1">
          <mxGeometry x="840" y="480" width="40" height="40" as="geometry" />
        </mxCell>
        <mxCell id="WittVWpWR6wsNWBmQSTq-131" value="" style="rounded=0;whiteSpace=wrap;html=1;fillColor=#CCCCCC;strokeColor=#FFFFFF;strokeWidth=2;" parent="1" vertex="1">
          <mxGeometry x="880" y="480" width="40" height="40" as="geometry" />
        </mxCell>
        <mxCell id="WittVWpWR6wsNWBmQSTq-132" value="" style="rounded=0;whiteSpace=wrap;html=1;fillColor=#CCCCCC;strokeColor=#FFFFFF;strokeWidth=2;" parent="1" vertex="1">
          <mxGeometry x="920" y="480" width="40" height="40" as="geometry" />
        </mxCell>
        <mxCell id="WittVWpWR6wsNWBmQSTq-133" value="" style="rounded=0;whiteSpace=wrap;html=1;fillColor=#CCCCCC;strokeColor=#FFFFFF;strokeWidth=2;" parent="1" vertex="1">
          <mxGeometry x="960" y="480" width="40" height="40" as="geometry" />
        </mxCell>
        <mxCell id="WittVWpWR6wsNWBmQSTq-134" value="" style="rounded=0;whiteSpace=wrap;html=1;fillColor=#CCCCCC;strokeColor=#FFFFFF;strokeWidth=2;" parent="1" vertex="1">
          <mxGeometry x="1000" y="480" width="40" height="40" as="geometry" />
        </mxCell>
        <mxCell id="WittVWpWR6wsNWBmQSTq-135" value="" style="rounded=0;whiteSpace=wrap;html=1;fillColor=#CCCCCC;strokeColor=#FFFFFF;strokeWidth=2;" parent="1" vertex="1">
          <mxGeometry x="1040" y="480" width="40" height="40" as="geometry" />
        </mxCell>
        <mxCell id="WittVWpWR6wsNWBmQSTq-136" value="" style="rounded=0;whiteSpace=wrap;html=1;fillColor=#CCCCCC;strokeColor=#FFFFFF;strokeWidth=2;" parent="1" vertex="1">
          <mxGeometry x="1080" y="480" width="40" height="40" as="geometry" />
        </mxCell>
        <mxCell id="WittVWpWR6wsNWBmQSTq-137" value="" style="rounded=0;whiteSpace=wrap;html=1;fillColor=#91C1FF;strokeColor=#FFFFFF;strokeWidth=2;" parent="1" vertex="1">
          <mxGeometry x="1160" y="280" width="40" height="40" as="geometry" />
        </mxCell>
        <mxCell id="WittVWpWR6wsNWBmQSTq-138" value="" style="rounded=0;whiteSpace=wrap;html=1;fillColor=#91C1FF;strokeColor=#FFFFFF;strokeWidth=2;" parent="1" vertex="1">
          <mxGeometry x="1200" y="280" width="40" height="40" as="geometry" />
        </mxCell>
        <mxCell id="WittVWpWR6wsNWBmQSTq-139" value="" style="rounded=0;whiteSpace=wrap;html=1;fillColor=#91C1FF;strokeColor=#FFFFFF;strokeWidth=2;" parent="1" vertex="1">
          <mxGeometry x="1240" y="280" width="40" height="40" as="geometry" />
        </mxCell>
        <mxCell id="WittVWpWR6wsNWBmQSTq-140" value="" style="rounded=0;whiteSpace=wrap;html=1;fillColor=#91C1FF;strokeColor=#FFFFFF;strokeWidth=2;" parent="1" vertex="1">
          <mxGeometry x="1280" y="280" width="40" height="40" as="geometry" />
        </mxCell>
        <mxCell id="WittVWpWR6wsNWBmQSTq-141" value="" style="rounded=0;whiteSpace=wrap;html=1;fillColor=#2CA395;strokeColor=#FFFFFF;strokeWidth=2;" parent="1" vertex="1">
          <mxGeometry x="1320" y="280" width="40" height="40" as="geometry" />
        </mxCell>
        <mxCell id="WittVWpWR6wsNWBmQSTq-142" value="" style="rounded=0;whiteSpace=wrap;html=1;fillColor=#91C1FF;strokeColor=#FFFFFF;strokeWidth=2;" parent="1" vertex="1">
          <mxGeometry x="1360" y="280" width="40" height="40" as="geometry" />
        </mxCell>
        <mxCell id="WittVWpWR6wsNWBmQSTq-143" value="" style="rounded=0;whiteSpace=wrap;html=1;fillColor=#91C1FF;strokeColor=#FFFFFF;strokeWidth=2;" parent="1" vertex="1">
          <mxGeometry x="1400" y="280" width="40" height="40" as="geometry" />
        </mxCell>
        <mxCell id="WittVWpWR6wsNWBmQSTq-144" value="" style="rounded=0;whiteSpace=wrap;html=1;fillColor=#91C1FF;strokeColor=#FFFFFF;strokeWidth=2;" parent="1" vertex="1">
          <mxGeometry x="1440" y="280" width="40" height="40" as="geometry" />
        </mxCell>
        <mxCell id="WittVWpWR6wsNWBmQSTq-145" value="" style="rounded=0;whiteSpace=wrap;html=1;fillColor=#91C1FF;strokeColor=#FFFFFF;strokeWidth=2;" parent="1" vertex="1">
          <mxGeometry x="1480" y="280" width="40" height="40" as="geometry" />
        </mxCell>
        <mxCell id="WittVWpWR6wsNWBmQSTq-146" value="" style="rounded=0;whiteSpace=wrap;html=1;fillColor=#91C1FF;strokeColor=#FFFFFF;strokeWidth=2;" parent="1" vertex="1">
          <mxGeometry x="1160" y="320" width="40" height="40" as="geometry" />
        </mxCell>
        <mxCell id="WittVWpWR6wsNWBmQSTq-147" value="" style="rounded=0;whiteSpace=wrap;html=1;fillColor=#91C1FF;strokeColor=#FFFFFF;strokeWidth=2;" parent="1" vertex="1">
          <mxGeometry x="1200" y="320" width="40" height="40" as="geometry" />
        </mxCell>
        <mxCell id="WittVWpWR6wsNWBmQSTq-148" value="" style="rounded=0;whiteSpace=wrap;html=1;fillColor=#2CA395;strokeColor=#FFFFFF;strokeWidth=2;" parent="1" vertex="1">
          <mxGeometry x="1240" y="320" width="40" height="40" as="geometry" />
        </mxCell>
        <mxCell id="WittVWpWR6wsNWBmQSTq-149" value="" style="rounded=0;whiteSpace=wrap;html=1;fillColor=#2CA395;strokeColor=#FFFFFF;strokeWidth=2;" parent="1" vertex="1">
          <mxGeometry x="1280" y="320" width="40" height="40" as="geometry" />
        </mxCell>
        <mxCell id="WittVWpWR6wsNWBmQSTq-150" value="" style="rounded=0;whiteSpace=wrap;html=1;fillColor=#2CA395;strokeColor=#FFFFFF;strokeWidth=2;" parent="1" vertex="1">
          <mxGeometry x="1320" y="320" width="40" height="40" as="geometry" />
        </mxCell>
        <mxCell id="WittVWpWR6wsNWBmQSTq-151" value="" style="rounded=0;whiteSpace=wrap;html=1;fillColor=#2CA395;strokeColor=#FFFFFF;strokeWidth=2;" parent="1" vertex="1">
          <mxGeometry x="1360" y="320" width="40" height="40" as="geometry" />
        </mxCell>
        <mxCell id="WittVWpWR6wsNWBmQSTq-152" value="" style="rounded=0;whiteSpace=wrap;html=1;fillColor=#2CA395;strokeColor=#FFFFFF;strokeWidth=2;" parent="1" vertex="1">
          <mxGeometry x="1400" y="320" width="40" height="40" as="geometry" />
        </mxCell>
        <mxCell id="WittVWpWR6wsNWBmQSTq-153" value="" style="rounded=0;whiteSpace=wrap;html=1;fillColor=#91C1FF;strokeColor=#FFFFFF;strokeWidth=2;" parent="1" vertex="1">
          <mxGeometry x="1440" y="320" width="40" height="40" as="geometry" />
        </mxCell>
        <mxCell id="WittVWpWR6wsNWBmQSTq-154" value="" style="rounded=0;whiteSpace=wrap;html=1;fillColor=#91C1FF;strokeColor=#FFFFFF;strokeWidth=2;" parent="1" vertex="1">
          <mxGeometry x="1480" y="320" width="40" height="40" as="geometry" />
        </mxCell>
        <mxCell id="WittVWpWR6wsNWBmQSTq-155" value="" style="rounded=0;whiteSpace=wrap;html=1;fillColor=#91C1FF;strokeColor=#FFFFFF;strokeWidth=2;" parent="1" vertex="1">
          <mxGeometry x="1160" y="360" width="40" height="40" as="geometry" />
        </mxCell>
        <mxCell id="WittVWpWR6wsNWBmQSTq-156" value="" style="rounded=0;whiteSpace=wrap;html=1;fillColor=#2CA395;strokeColor=#FFFFFF;strokeWidth=2;" parent="1" vertex="1">
          <mxGeometry x="1200" y="360" width="40" height="40" as="geometry" />
        </mxCell>
        <mxCell id="WittVWpWR6wsNWBmQSTq-157" value="" style="rounded=0;whiteSpace=wrap;html=1;fillColor=#2CA395;strokeColor=#FFFFFF;strokeWidth=2;" parent="1" vertex="1">
          <mxGeometry x="1240" y="360" width="40" height="40" as="geometry" />
        </mxCell>
        <mxCell id="WittVWpWR6wsNWBmQSTq-158" value="" style="rounded=0;whiteSpace=wrap;html=1;fillColor=#2CA395;strokeColor=#FFFFFF;strokeWidth=2;" parent="1" vertex="1">
          <mxGeometry x="1280" y="360" width="40" height="40" as="geometry" />
        </mxCell>
        <mxCell id="WittVWpWR6wsNWBmQSTq-159" value="" style="rounded=0;whiteSpace=wrap;html=1;fillColor=#2CA395;strokeColor=#FFFFFF;strokeWidth=2;" parent="1" vertex="1">
          <mxGeometry x="1320" y="360" width="40" height="40" as="geometry" />
        </mxCell>
        <mxCell id="WittVWpWR6wsNWBmQSTq-160" value="" style="rounded=0;whiteSpace=wrap;html=1;fillColor=#2CA395;strokeColor=#FFFFFF;strokeWidth=2;" parent="1" vertex="1">
          <mxGeometry x="1360" y="360" width="40" height="40" as="geometry" />
        </mxCell>
        <mxCell id="WittVWpWR6wsNWBmQSTq-161" value="" style="rounded=0;whiteSpace=wrap;html=1;fillColor=#2CA395;strokeColor=#FFFFFF;strokeWidth=2;" parent="1" vertex="1">
          <mxGeometry x="1400" y="360" width="40" height="40" as="geometry" />
        </mxCell>
        <mxCell id="WittVWpWR6wsNWBmQSTq-162" value="" style="rounded=0;whiteSpace=wrap;html=1;fillColor=#2CA395;strokeColor=#FFFFFF;strokeWidth=2;" parent="1" vertex="1">
          <mxGeometry x="1440" y="360" width="40" height="40" as="geometry" />
        </mxCell>
        <mxCell id="WittVWpWR6wsNWBmQSTq-163" value="" style="rounded=0;whiteSpace=wrap;html=1;fillColor=#91C1FF;strokeColor=#FFFFFF;strokeWidth=2;" parent="1" vertex="1">
          <mxGeometry x="1480" y="360" width="40" height="40" as="geometry" />
        </mxCell>
        <mxCell id="WittVWpWR6wsNWBmQSTq-164" value="" style="rounded=0;whiteSpace=wrap;html=1;fillColor=#91C1FF;strokeColor=#FFFFFF;strokeWidth=2;" parent="1" vertex="1">
          <mxGeometry x="1160" y="400" width="40" height="40" as="geometry" />
        </mxCell>
        <mxCell id="WittVWpWR6wsNWBmQSTq-165" value="" style="rounded=0;whiteSpace=wrap;html=1;fillColor=#2CA395;strokeColor=#FFFFFF;strokeWidth=2;" parent="1" vertex="1">
          <mxGeometry x="1200" y="400" width="40" height="40" as="geometry" />
        </mxCell>
        <mxCell id="WittVWpWR6wsNWBmQSTq-166" value="" style="rounded=0;whiteSpace=wrap;html=1;fillColor=#2CA395;strokeColor=#FFFFFF;strokeWidth=2;" parent="1" vertex="1">
          <mxGeometry x="1240" y="400" width="40" height="40" as="geometry" />
        </mxCell>
        <mxCell id="WittVWpWR6wsNWBmQSTq-167" value="" style="rounded=0;whiteSpace=wrap;html=1;fillColor=#2CA395;strokeColor=#FFFFFF;strokeWidth=2;" parent="1" vertex="1">
          <mxGeometry x="1280" y="400" width="40" height="40" as="geometry" />
        </mxCell>
        <mxCell id="WittVWpWR6wsNWBmQSTq-168" value="" style="rounded=0;whiteSpace=wrap;html=1;fillColor=#2CA395;strokeColor=#FFFFFF;strokeWidth=2;" parent="1" vertex="1">
          <mxGeometry x="1320" y="400" width="40" height="40" as="geometry" />
        </mxCell>
        <mxCell id="WittVWpWR6wsNWBmQSTq-169" value="" style="rounded=0;whiteSpace=wrap;html=1;fillColor=#2CA395;strokeColor=#FFFFFF;strokeWidth=2;" parent="1" vertex="1">
          <mxGeometry x="1360" y="400" width="40" height="40" as="geometry" />
        </mxCell>
        <mxCell id="WittVWpWR6wsNWBmQSTq-170" value="" style="rounded=0;whiteSpace=wrap;html=1;fillColor=#2CA395;strokeColor=#FFFFFF;strokeWidth=2;" parent="1" vertex="1">
          <mxGeometry x="1400" y="400" width="40" height="40" as="geometry" />
        </mxCell>
        <mxCell id="WittVWpWR6wsNWBmQSTq-171" value="" style="rounded=0;whiteSpace=wrap;html=1;fillColor=#2CA395;strokeColor=#FFFFFF;strokeWidth=2;" parent="1" vertex="1">
          <mxGeometry x="1440" y="400" width="40" height="40" as="geometry" />
        </mxCell>
        <mxCell id="WittVWpWR6wsNWBmQSTq-172" value="" style="rounded=0;whiteSpace=wrap;html=1;fillColor=#91C1FF;strokeColor=#FFFFFF;strokeWidth=2;" parent="1" vertex="1">
          <mxGeometry x="1480" y="400" width="40" height="40" as="geometry" />
        </mxCell>
        <mxCell id="WittVWpWR6wsNWBmQSTq-173" value="" style="rounded=0;whiteSpace=wrap;html=1;fillColor=#2CA395;strokeColor=#FFFFFF;strokeWidth=2;" parent="1" vertex="1">
          <mxGeometry x="1160" y="440" width="40" height="40" as="geometry" />
        </mxCell>
        <mxCell id="WittVWpWR6wsNWBmQSTq-174" value="" style="rounded=0;whiteSpace=wrap;html=1;fillColor=#2CA395;strokeColor=#FFFFFF;strokeWidth=2;" parent="1" vertex="1">
          <mxGeometry x="1200" y="440" width="40" height="40" as="geometry" />
        </mxCell>
        <mxCell id="WittVWpWR6wsNWBmQSTq-175" value="" style="rounded=0;whiteSpace=wrap;html=1;fillColor=#2CA395;strokeColor=#FFFFFF;strokeWidth=2;" parent="1" vertex="1">
          <mxGeometry x="1240" y="440" width="40" height="40" as="geometry" />
        </mxCell>
        <mxCell id="WittVWpWR6wsNWBmQSTq-176" value="" style="rounded=0;whiteSpace=wrap;html=1;fillColor=#2CA395;strokeColor=#FFFFFF;strokeWidth=2;" parent="1" vertex="1">
          <mxGeometry x="1280" y="440" width="40" height="40" as="geometry" />
        </mxCell>
        <mxCell id="WittVWpWR6wsNWBmQSTq-177" value="" style="rounded=0;whiteSpace=wrap;html=1;fillColor=#E76F51;strokeColor=#FFFFFF;strokeWidth=2;" parent="1" vertex="1">
          <mxGeometry x="1320" y="440" width="40" height="40" as="geometry" />
        </mxCell>
        <mxCell id="WittVWpWR6wsNWBmQSTq-178" value="" style="rounded=0;whiteSpace=wrap;html=1;fillColor=#CCCCCC;strokeColor=#FFFFFF;strokeWidth=2;" parent="1" vertex="1">
          <mxGeometry x="1360" y="440" width="40" height="40" as="geometry" />
        </mxCell>
        <mxCell id="WittVWpWR6wsNWBmQSTq-179" value="" style="rounded=0;whiteSpace=wrap;html=1;fillColor=#CCCCCC;strokeColor=#FFFFFF;strokeWidth=2;" parent="1" vertex="1">
          <mxGeometry x="1400" y="440" width="40" height="40" as="geometry" />
        </mxCell>
        <mxCell id="WittVWpWR6wsNWBmQSTq-180" value="" style="rounded=0;whiteSpace=wrap;html=1;fillColor=#CCCCCC;strokeColor=#FFFFFF;strokeWidth=2;" parent="1" vertex="1">
          <mxGeometry x="1440" y="440" width="40" height="40" as="geometry" />
        </mxCell>
        <mxCell id="WittVWpWR6wsNWBmQSTq-181" value="" style="rounded=0;whiteSpace=wrap;html=1;fillColor=#CCCCCC;strokeColor=#FFFFFF;strokeWidth=2;" parent="1" vertex="1">
          <mxGeometry x="1480" y="440" width="40" height="40" as="geometry" />
        </mxCell>
        <mxCell id="WittVWpWR6wsNWBmQSTq-182" value="" style="rounded=0;whiteSpace=wrap;html=1;fillColor=#CCCCCC;strokeColor=#FFFFFF;strokeWidth=2;" parent="1" vertex="1">
          <mxGeometry x="1160" y="480" width="40" height="40" as="geometry" />
        </mxCell>
        <mxCell id="WittVWpWR6wsNWBmQSTq-183" value="" style="rounded=0;whiteSpace=wrap;html=1;fillColor=#CCCCCC;strokeColor=#FFFFFF;strokeWidth=2;" parent="1" vertex="1">
          <mxGeometry x="1200" y="480" width="40" height="40" as="geometry" />
        </mxCell>
        <mxCell id="WittVWpWR6wsNWBmQSTq-184" value="" style="rounded=0;whiteSpace=wrap;html=1;fillColor=#CCCCCC;strokeColor=#FFFFFF;strokeWidth=2;" parent="1" vertex="1">
          <mxGeometry x="1240" y="480" width="40" height="40" as="geometry" />
        </mxCell>
        <mxCell id="WittVWpWR6wsNWBmQSTq-185" value="" style="rounded=0;whiteSpace=wrap;html=1;fillColor=#CCCCCC;strokeColor=#FFFFFF;strokeWidth=2;" parent="1" vertex="1">
          <mxGeometry x="1280" y="480" width="40" height="40" as="geometry" />
        </mxCell>
        <mxCell id="WittVWpWR6wsNWBmQSTq-186" value="" style="rounded=0;whiteSpace=wrap;html=1;fillColor=#CCCCCC;strokeColor=#FFFFFF;strokeWidth=2;" parent="1" vertex="1">
          <mxGeometry x="1320" y="480" width="40" height="40" as="geometry" />
        </mxCell>
        <mxCell id="WittVWpWR6wsNWBmQSTq-187" value="" style="rounded=0;whiteSpace=wrap;html=1;fillColor=#CCCCCC;strokeColor=#FFFFFF;strokeWidth=2;" parent="1" vertex="1">
          <mxGeometry x="1360" y="480" width="40" height="40" as="geometry" />
        </mxCell>
        <mxCell id="WittVWpWR6wsNWBmQSTq-188" value="" style="rounded=0;whiteSpace=wrap;html=1;fillColor=#CCCCCC;strokeColor=#FFFFFF;strokeWidth=2;" parent="1" vertex="1">
          <mxGeometry x="1400" y="480" width="40" height="40" as="geometry" />
        </mxCell>
        <mxCell id="WittVWpWR6wsNWBmQSTq-189" value="" style="rounded=0;whiteSpace=wrap;html=1;fillColor=#CCCCCC;strokeColor=#FFFFFF;strokeWidth=2;" parent="1" vertex="1">
          <mxGeometry x="1440" y="480" width="40" height="40" as="geometry" />
        </mxCell>
        <mxCell id="WittVWpWR6wsNWBmQSTq-190" value="" style="rounded=0;whiteSpace=wrap;html=1;fillColor=#CCCCCC;strokeColor=#FFFFFF;strokeWidth=2;" parent="1" vertex="1">
          <mxGeometry x="1480" y="480" width="40" height="40" as="geometry" />
        </mxCell>
        <mxCell id="WittVWpWR6wsNWBmQSTq-191" value="" style="rounded=0;whiteSpace=wrap;html=1;fillColor=#91C1FF;strokeColor=#FFFFFF;strokeWidth=2;" parent="1" vertex="1">
          <mxGeometry x="1560" y="280" width="40" height="40" as="geometry" />
        </mxCell>
        <mxCell id="WittVWpWR6wsNWBmQSTq-192" value="" style="rounded=0;whiteSpace=wrap;html=1;fillColor=#91C1FF;strokeColor=#FFFFFF;strokeWidth=2;" parent="1" vertex="1">
          <mxGeometry x="1600" y="280" width="40" height="40" as="geometry" />
        </mxCell>
        <mxCell id="WittVWpWR6wsNWBmQSTq-193" value="" style="rounded=0;whiteSpace=wrap;html=1;fillColor=#2CA395;strokeColor=#FFFFFF;strokeWidth=2;" parent="1" vertex="1">
          <mxGeometry x="1640" y="280" width="40" height="40" as="geometry" />
        </mxCell>
        <mxCell id="WittVWpWR6wsNWBmQSTq-194" value="" style="rounded=0;whiteSpace=wrap;html=1;fillColor=#2CA395;strokeColor=#FFFFFF;strokeWidth=2;" parent="1" vertex="1">
          <mxGeometry x="1680" y="280" width="40" height="40" as="geometry" />
        </mxCell>
        <mxCell id="WittVWpWR6wsNWBmQSTq-195" value="" style="rounded=0;whiteSpace=wrap;html=1;fillColor=#2CA395;strokeColor=#FFFFFF;strokeWidth=2;" parent="1" vertex="1">
          <mxGeometry x="1720" y="280" width="40" height="40" as="geometry" />
        </mxCell>
        <mxCell id="WittVWpWR6wsNWBmQSTq-196" value="" style="rounded=0;whiteSpace=wrap;html=1;fillColor=#2CA395;strokeColor=#FFFFFF;strokeWidth=2;" parent="1" vertex="1">
          <mxGeometry x="1760" y="280" width="40" height="40" as="geometry" />
        </mxCell>
        <mxCell id="WittVWpWR6wsNWBmQSTq-197" value="" style="rounded=0;whiteSpace=wrap;html=1;fillColor=#91C1FF;strokeColor=#FFFFFF;strokeWidth=2;" parent="1" vertex="1">
          <mxGeometry x="1800" y="280" width="40" height="40" as="geometry" />
        </mxCell>
        <mxCell id="WittVWpWR6wsNWBmQSTq-198" value="" style="rounded=0;whiteSpace=wrap;html=1;fillColor=#91C1FF;strokeColor=#FFFFFF;strokeWidth=2;" parent="1" vertex="1">
          <mxGeometry x="1840" y="280" width="40" height="40" as="geometry" />
        </mxCell>
        <mxCell id="WittVWpWR6wsNWBmQSTq-199" value="" style="rounded=0;whiteSpace=wrap;html=1;fillColor=#91C1FF;strokeColor=#FFFFFF;strokeWidth=2;" parent="1" vertex="1">
          <mxGeometry x="1880" y="280" width="40" height="40" as="geometry" />
        </mxCell>
        <mxCell id="WittVWpWR6wsNWBmQSTq-200" value="" style="rounded=0;whiteSpace=wrap;html=1;fillColor=#91C1FF;strokeColor=#FFFFFF;strokeWidth=2;" parent="1" vertex="1">
          <mxGeometry x="1560" y="320" width="40" height="40" as="geometry" />
        </mxCell>
        <mxCell id="WittVWpWR6wsNWBmQSTq-201" value="" style="rounded=0;whiteSpace=wrap;html=1;fillColor=#2CA395;strokeColor=#FFFFFF;strokeWidth=2;" parent="1" vertex="1">
          <mxGeometry x="1600" y="320" width="40" height="40" as="geometry" />
        </mxCell>
        <mxCell id="WittVWpWR6wsNWBmQSTq-202" value="" style="rounded=0;whiteSpace=wrap;html=1;fillColor=#2CA395;strokeColor=#FFFFFF;strokeWidth=2;" parent="1" vertex="1">
          <mxGeometry x="1640" y="320" width="40" height="40" as="geometry" />
        </mxCell>
        <mxCell id="WittVWpWR6wsNWBmQSTq-203" value="" style="rounded=0;whiteSpace=wrap;html=1;fillColor=#2CA395;strokeColor=#FFFFFF;strokeWidth=2;" parent="1" vertex="1">
          <mxGeometry x="1680" y="320" width="40" height="40" as="geometry" />
        </mxCell>
        <mxCell id="WittVWpWR6wsNWBmQSTq-204" value="" style="rounded=0;whiteSpace=wrap;html=1;fillColor=#2CA395;strokeColor=#FFFFFF;strokeWidth=2;" parent="1" vertex="1">
          <mxGeometry x="1720" y="320" width="40" height="40" as="geometry" />
        </mxCell>
        <mxCell id="WittVWpWR6wsNWBmQSTq-205" value="" style="rounded=0;whiteSpace=wrap;html=1;fillColor=#2CA395;strokeColor=#FFFFFF;strokeWidth=2;" parent="1" vertex="1">
          <mxGeometry x="1760" y="320" width="40" height="40" as="geometry" />
        </mxCell>
        <mxCell id="WittVWpWR6wsNWBmQSTq-206" value="" style="rounded=0;whiteSpace=wrap;html=1;fillColor=#2CA395;strokeColor=#FFFFFF;strokeWidth=2;" parent="1" vertex="1">
          <mxGeometry x="1800" y="320" width="40" height="40" as="geometry" />
        </mxCell>
        <mxCell id="WittVWpWR6wsNWBmQSTq-207" value="" style="rounded=0;whiteSpace=wrap;html=1;fillColor=#2CA395;strokeColor=#FFFFFF;strokeWidth=2;" parent="1" vertex="1">
          <mxGeometry x="1840" y="320" width="40" height="40" as="geometry" />
        </mxCell>
        <mxCell id="WittVWpWR6wsNWBmQSTq-208" value="" style="rounded=0;whiteSpace=wrap;html=1;fillColor=#91C1FF;strokeColor=#FFFFFF;strokeWidth=2;" parent="1" vertex="1">
          <mxGeometry x="1880" y="320" width="40" height="40" as="geometry" />
        </mxCell>
        <mxCell id="WittVWpWR6wsNWBmQSTq-209" value="" style="rounded=0;whiteSpace=wrap;html=1;fillColor=#91C1FF;strokeColor=#FFFFFF;strokeWidth=2;" parent="1" vertex="1">
          <mxGeometry x="1560" y="360" width="40" height="40" as="geometry" />
        </mxCell>
        <mxCell id="WittVWpWR6wsNWBmQSTq-210" value="" style="rounded=0;whiteSpace=wrap;html=1;fillColor=#2CA395;strokeColor=#FFFFFF;strokeWidth=2;" parent="1" vertex="1">
          <mxGeometry x="1600" y="360" width="40" height="40" as="geometry" />
        </mxCell>
        <mxCell id="WittVWpWR6wsNWBmQSTq-211" value="" style="rounded=0;whiteSpace=wrap;html=1;fillColor=#2CA395;strokeColor=#FFFFFF;strokeWidth=2;" parent="1" vertex="1">
          <mxGeometry x="1640" y="360" width="40" height="40" as="geometry" />
        </mxCell>
        <mxCell id="WittVWpWR6wsNWBmQSTq-212" value="" style="rounded=0;whiteSpace=wrap;html=1;fillColor=#2CA395;strokeColor=#FFFFFF;strokeWidth=2;" parent="1" vertex="1">
          <mxGeometry x="1680" y="360" width="40" height="40" as="geometry" />
        </mxCell>
        <mxCell id="WittVWpWR6wsNWBmQSTq-213" value="" style="rounded=0;whiteSpace=wrap;html=1;fillColor=#2CA395;strokeColor=#FFFFFF;strokeWidth=2;" parent="1" vertex="1">
          <mxGeometry x="1720" y="360" width="40" height="40" as="geometry" />
        </mxCell>
        <mxCell id="WittVWpWR6wsNWBmQSTq-214" value="" style="rounded=0;whiteSpace=wrap;html=1;fillColor=#2CA395;strokeColor=#FFFFFF;strokeWidth=2;" parent="1" vertex="1">
          <mxGeometry x="1760" y="360" width="40" height="40" as="geometry" />
        </mxCell>
        <mxCell id="WittVWpWR6wsNWBmQSTq-215" value="" style="rounded=0;whiteSpace=wrap;html=1;fillColor=#2CA395;strokeColor=#FFFFFF;strokeWidth=2;" parent="1" vertex="1">
          <mxGeometry x="1800" y="360" width="40" height="40" as="geometry" />
        </mxCell>
        <mxCell id="WittVWpWR6wsNWBmQSTq-216" value="" style="rounded=0;whiteSpace=wrap;html=1;fillColor=#2CA395;strokeColor=#FFFFFF;strokeWidth=2;" parent="1" vertex="1">
          <mxGeometry x="1840" y="360" width="40" height="40" as="geometry" />
        </mxCell>
        <mxCell id="WittVWpWR6wsNWBmQSTq-217" value="" style="rounded=0;whiteSpace=wrap;html=1;fillColor=#2CA395;strokeColor=#FFFFFF;strokeWidth=2;" parent="1" vertex="1">
          <mxGeometry x="1880" y="360" width="40" height="40" as="geometry" />
        </mxCell>
        <mxCell id="WittVWpWR6wsNWBmQSTq-218" value="" style="rounded=0;whiteSpace=wrap;html=1;fillColor=#2CA395;strokeColor=#FFFFFF;strokeWidth=2;" parent="1" vertex="1">
          <mxGeometry x="1560" y="400" width="40" height="40" as="geometry" />
        </mxCell>
        <mxCell id="WittVWpWR6wsNWBmQSTq-219" value="" style="rounded=0;whiteSpace=wrap;html=1;fillColor=#2CA395;strokeColor=#FFFFFF;strokeWidth=2;" parent="1" vertex="1">
          <mxGeometry x="1600" y="400" width="40" height="40" as="geometry" />
        </mxCell>
        <mxCell id="WittVWpWR6wsNWBmQSTq-220" value="" style="rounded=0;whiteSpace=wrap;html=1;fillColor=#2CA395;strokeColor=#FFFFFF;strokeWidth=2;" parent="1" vertex="1">
          <mxGeometry x="1640" y="400" width="40" height="40" as="geometry" />
        </mxCell>
        <mxCell id="WittVWpWR6wsNWBmQSTq-221" value="" style="rounded=0;whiteSpace=wrap;html=1;fillColor=#2CA395;strokeColor=#FFFFFF;strokeWidth=2;" parent="1" vertex="1">
          <mxGeometry x="1680" y="400" width="40" height="40" as="geometry" />
        </mxCell>
        <mxCell id="WittVWpWR6wsNWBmQSTq-222" value="" style="rounded=0;whiteSpace=wrap;html=1;fillColor=#2CA395;strokeColor=#FFFFFF;strokeWidth=2;" parent="1" vertex="1">
          <mxGeometry x="1720" y="400" width="40" height="40" as="geometry" />
        </mxCell>
        <mxCell id="WittVWpWR6wsNWBmQSTq-223" value="" style="rounded=0;whiteSpace=wrap;html=1;fillColor=#2CA395;strokeColor=#FFFFFF;strokeWidth=2;" parent="1" vertex="1">
          <mxGeometry x="1760" y="400" width="40" height="40" as="geometry" />
        </mxCell>
        <mxCell id="WittVWpWR6wsNWBmQSTq-224" value="" style="rounded=0;whiteSpace=wrap;html=1;fillColor=#2CA395;strokeColor=#FFFFFF;strokeWidth=2;" parent="1" vertex="1">
          <mxGeometry x="1800" y="400" width="40" height="40" as="geometry" />
        </mxCell>
        <mxCell id="WittVWpWR6wsNWBmQSTq-225" value="" style="rounded=0;whiteSpace=wrap;html=1;fillColor=#2CA395;strokeColor=#FFFFFF;strokeWidth=2;" parent="1" vertex="1">
          <mxGeometry x="1840" y="400" width="40" height="40" as="geometry" />
        </mxCell>
        <mxCell id="WittVWpWR6wsNWBmQSTq-226" value="" style="rounded=0;whiteSpace=wrap;html=1;fillColor=#2CA395;strokeColor=#FFFFFF;strokeWidth=2;" parent="1" vertex="1">
          <mxGeometry x="1880" y="400" width="40" height="40" as="geometry" />
        </mxCell>
        <mxCell id="WittVWpWR6wsNWBmQSTq-227" value="" style="rounded=0;whiteSpace=wrap;html=1;fillColor=#2CA395;strokeColor=#FFFFFF;strokeWidth=2;" parent="1" vertex="1">
          <mxGeometry x="1560" y="440" width="40" height="40" as="geometry" />
        </mxCell>
        <mxCell id="WittVWpWR6wsNWBmQSTq-228" value="" style="rounded=0;whiteSpace=wrap;html=1;fillColor=#2CA395;strokeColor=#FFFFFF;strokeWidth=2;" parent="1" vertex="1">
          <mxGeometry x="1600" y="440" width="40" height="40" as="geometry" />
        </mxCell>
        <mxCell id="WittVWpWR6wsNWBmQSTq-229" value="" style="rounded=0;whiteSpace=wrap;html=1;fillColor=#2CA395;strokeColor=#FFFFFF;strokeWidth=2;" parent="1" vertex="1">
          <mxGeometry x="1640" y="440" width="40" height="40" as="geometry" />
        </mxCell>
        <mxCell id="WittVWpWR6wsNWBmQSTq-230" value="" style="rounded=0;whiteSpace=wrap;html=1;fillColor=#2CA395;strokeColor=#FFFFFF;strokeWidth=2;" parent="1" vertex="1">
          <mxGeometry x="1680" y="440" width="40" height="40" as="geometry" />
        </mxCell>
        <mxCell id="WittVWpWR6wsNWBmQSTq-231" value="" style="rounded=0;whiteSpace=wrap;html=1;fillColor=#E76F51;strokeColor=#FFFFFF;strokeWidth=2;" parent="1" vertex="1">
          <mxGeometry x="1720" y="440" width="40" height="40" as="geometry" />
        </mxCell>
        <mxCell id="WittVWpWR6wsNWBmQSTq-232" value="" style="rounded=0;whiteSpace=wrap;html=1;fillColor=#CCCCCC;strokeColor=#FFFFFF;strokeWidth=2;" parent="1" vertex="1">
          <mxGeometry x="1760" y="440" width="40" height="40" as="geometry" />
        </mxCell>
        <mxCell id="WittVWpWR6wsNWBmQSTq-233" value="" style="rounded=0;whiteSpace=wrap;html=1;fillColor=#CCCCCC;strokeColor=#FFFFFF;strokeWidth=2;" parent="1" vertex="1">
          <mxGeometry x="1800" y="440" width="40" height="40" as="geometry" />
        </mxCell>
        <mxCell id="WittVWpWR6wsNWBmQSTq-234" value="" style="rounded=0;whiteSpace=wrap;html=1;fillColor=#CCCCCC;strokeColor=#FFFFFF;strokeWidth=2;" parent="1" vertex="1">
          <mxGeometry x="1840" y="440" width="40" height="40" as="geometry" />
        </mxCell>
        <mxCell id="WittVWpWR6wsNWBmQSTq-235" value="" style="rounded=0;whiteSpace=wrap;html=1;fillColor=#CCCCCC;strokeColor=#FFFFFF;strokeWidth=2;" parent="1" vertex="1">
          <mxGeometry x="1880" y="440" width="40" height="40" as="geometry" />
        </mxCell>
        <mxCell id="WittVWpWR6wsNWBmQSTq-236" value="" style="rounded=0;whiteSpace=wrap;html=1;fillColor=#CCCCCC;strokeColor=#FFFFFF;strokeWidth=2;" parent="1" vertex="1">
          <mxGeometry x="1560" y="480" width="40" height="40" as="geometry" />
        </mxCell>
        <mxCell id="WittVWpWR6wsNWBmQSTq-237" value="" style="rounded=0;whiteSpace=wrap;html=1;fillColor=#CCCCCC;strokeColor=#FFFFFF;strokeWidth=2;" parent="1" vertex="1">
          <mxGeometry x="1600" y="480" width="40" height="40" as="geometry" />
        </mxCell>
        <mxCell id="WittVWpWR6wsNWBmQSTq-238" value="" style="rounded=0;whiteSpace=wrap;html=1;fillColor=#CCCCCC;strokeColor=#FFFFFF;strokeWidth=2;" parent="1" vertex="1">
          <mxGeometry x="1640" y="480" width="40" height="40" as="geometry" />
        </mxCell>
        <mxCell id="WittVWpWR6wsNWBmQSTq-239" value="" style="rounded=0;whiteSpace=wrap;html=1;fillColor=#CCCCCC;strokeColor=#FFFFFF;strokeWidth=2;" parent="1" vertex="1">
          <mxGeometry x="1680" y="480" width="40" height="40" as="geometry" />
        </mxCell>
        <mxCell id="WittVWpWR6wsNWBmQSTq-240" value="" style="rounded=0;whiteSpace=wrap;html=1;fillColor=#CCCCCC;strokeColor=#FFFFFF;strokeWidth=2;" parent="1" vertex="1">
          <mxGeometry x="1720" y="480" width="40" height="40" as="geometry" />
        </mxCell>
        <mxCell id="WittVWpWR6wsNWBmQSTq-241" value="" style="rounded=0;whiteSpace=wrap;html=1;fillColor=#CCCCCC;strokeColor=#FFFFFF;strokeWidth=2;" parent="1" vertex="1">
          <mxGeometry x="1760" y="480" width="40" height="40" as="geometry" />
        </mxCell>
        <mxCell id="WittVWpWR6wsNWBmQSTq-242" value="" style="rounded=0;whiteSpace=wrap;html=1;fillColor=#CCCCCC;strokeColor=#FFFFFF;strokeWidth=2;" parent="1" vertex="1">
          <mxGeometry x="1800" y="480" width="40" height="40" as="geometry" />
        </mxCell>
        <mxCell id="WittVWpWR6wsNWBmQSTq-243" value="" style="rounded=0;whiteSpace=wrap;html=1;fillColor=#CCCCCC;strokeColor=#FFFFFF;strokeWidth=2;" parent="1" vertex="1">
          <mxGeometry x="1840" y="480" width="40" height="40" as="geometry" />
        </mxCell>
        <mxCell id="WittVWpWR6wsNWBmQSTq-244" value="" style="rounded=0;whiteSpace=wrap;html=1;fillColor=#CCCCCC;strokeColor=#FFFFFF;strokeWidth=2;" parent="1" vertex="1">
          <mxGeometry x="1880" y="480" width="40" height="40" as="geometry" />
        </mxCell>
        <mxCell id="WittVWpWR6wsNWBmQSTq-245" value="8 context pixels" style="text;html=1;strokeColor=none;fillColor=none;align=center;verticalAlign=middle;whiteSpace=wrap;rounded=0;fontSize=35;fontFamily=Raleway;fontSource=https%3A%2F%2Ffonts.googleapis.com%2Fcss%3Ffamily%3DRaleway;" parent="1" vertex="1">
          <mxGeometry x="360" y="530" width="360" height="30" as="geometry" />
        </mxCell>
        <mxCell id="WittVWpWR6wsNWBmQSTq-246" value="16 context pixels" style="text;html=1;strokeColor=none;fillColor=none;align=center;verticalAlign=middle;whiteSpace=wrap;rounded=0;fontSize=35;fontFamily=Raleway;fontSource=https%3A%2F%2Ffonts.googleapis.com%2Fcss%3Ffamily%3DRaleway;" parent="1" vertex="1">
          <mxGeometry x="760" y="530" width="360" height="30" as="geometry" />
        </mxCell>
        <mxCell id="WittVWpWR6wsNWBmQSTq-247" value="24 context pixels" style="text;html=1;strokeColor=none;fillColor=none;align=center;verticalAlign=middle;whiteSpace=wrap;rounded=0;fontSize=35;fontFamily=Raleway;fontSource=https%3A%2F%2Ffonts.googleapis.com%2Fcss%3Ffamily%3DRaleway;" parent="1" vertex="1">
          <mxGeometry x="1160" y="530" width="360" height="30" as="geometry" />
        </mxCell>
        <mxCell id="WittVWpWR6wsNWBmQSTq-248" value="32 context pixels" style="text;html=1;strokeColor=none;fillColor=none;align=center;verticalAlign=middle;whiteSpace=wrap;rounded=0;fontSize=35;fontFamily=Raleway;fontSource=https%3A%2F%2Ffonts.googleapis.com%2Fcss%3Ffamily%3DRaleway;" parent="1" vertex="1">
          <mxGeometry x="1560" y="530" width="360" height="30" as="geometry" />
        </mxCell>
        <mxCell id="WittVWpWR6wsNWBmQSTq-249" value="" style="rounded=0;whiteSpace=wrap;html=1;fillColor=#91C1FF;strokeColor=#FFFFFF;strokeWidth=2;" parent="1" vertex="1">
          <mxGeometry x="460" y="600" width="40" height="40" as="geometry" />
        </mxCell>
        <mxCell id="WittVWpWR6wsNWBmQSTq-250" value="&lt;div align=&quot;left&quot;&gt;Already decoded&lt;/div&gt;" style="text;html=1;strokeColor=none;fillColor=none;align=left;verticalAlign=middle;whiteSpace=wrap;rounded=0;fontSize=35;fontFamily=Raleway;fontSource=https%3A%2F%2Ffonts.googleapis.com%2Fcss%3Ffamily%3DRaleway;" parent="1" vertex="1">
          <mxGeometry x="550" y="605" width="300" height="30" as="geometry" />
        </mxCell>
        <mxCell id="WittVWpWR6wsNWBmQSTq-252" value="Context pixel" style="text;html=1;strokeColor=none;fillColor=none;align=left;verticalAlign=middle;whiteSpace=wrap;rounded=0;fontSize=35;fontFamily=Raleway;fontSource=https%3A%2F%2Ffonts.googleapis.com%2Fcss%3Ffamily%3DRaleway;" parent="1" vertex="1">
          <mxGeometry x="1269" y="605" width="300" height="30" as="geometry" />
        </mxCell>
        <mxCell id="WittVWpWR6wsNWBmQSTq-253" value="" style="rounded=0;whiteSpace=wrap;html=1;fillColor=#2CA395;strokeColor=#FFFFFF;strokeWidth=2;" parent="1" vertex="1">
          <mxGeometry x="500" y="600" width="40" height="40" as="geometry" />
        </mxCell>
        <mxCell id="WittVWpWR6wsNWBmQSTq-254" value="" style="rounded=0;whiteSpace=wrap;html=1;fillColor=#2CA395;strokeColor=#FFFFFF;strokeWidth=2;" parent="1" vertex="1">
          <mxGeometry x="1219" y="600" width="40" height="40" as="geometry" />
        </mxCell>
        <mxCell id="WittVWpWR6wsNWBmQSTq-257" value="" style="rounded=0;whiteSpace=wrap;html=1;fillColor=#CCCCCC;strokeColor=#FFFFFF;strokeWidth=2;" parent="1" vertex="1">
          <mxGeometry x="860" y="600" width="40" height="40" as="geometry" />
        </mxCell>
        <mxCell id="WittVWpWR6wsNWBmQSTq-258" value="Not decoded yet" style="text;html=1;strokeColor=none;fillColor=none;align=left;verticalAlign=middle;whiteSpace=wrap;rounded=0;fontSize=35;fontFamily=Raleway;fontSource=https%3A%2F%2Ffonts.googleapis.com%2Fcss%3Ffamily%3DRaleway;" parent="1" vertex="1">
          <mxGeometry x="910" y="605" width="300" height="30" as="geometry" />
        </mxCell>
        <mxCell id="WittVWpWR6wsNWBmQSTq-260" value="Being decoded" style="text;html=1;strokeColor=none;fillColor=none;align=left;verticalAlign=middle;whiteSpace=wrap;rounded=0;fontSize=35;fontFamily=Raleway;fontSource=https%3A%2F%2Ffonts.googleapis.com%2Fcss%3Ffamily%3DRaleway;" parent="1" vertex="1">
          <mxGeometry x="1589" y="605" width="300" height="30" as="geometry" />
        </mxCell>
        <mxCell id="WittVWpWR6wsNWBmQSTq-261" value="" style="rounded=0;whiteSpace=wrap;html=1;fillColor=#E76F51;strokeColor=#FFFFFF;strokeWidth=2;" parent="1" vertex="1">
          <mxGeometry x="1539" y="600" width="40" height="40" as="geometry" />
        </mxCell>
      </root>
    </mxGraphModel>
  </diagram>
</mxfile>
